HIERARCHY
ROOT mixamorig:Hips
{
	OFFSET -0.000008 104.274872 1.554316
	CHANNELS 6 Xposition Yposition Zposition Xrotation Yrotation Zrotation
	JOINT mixamorig:Spine
	{
		OFFSET -0.000005 10.181595 0.131519
		CHANNELS 6 Xposition Yposition Zposition Xrotation Yrotation Zrotation
		JOINT mixamorig:Spine1
		{
			OFFSET -0.000000 9.893959 -1.470707
			CHANNELS 6 Xposition Yposition Zposition Xrotation Yrotation Zrotation
			JOINT mixamorig:Spine2
			{
				OFFSET -0.000000 9.220757 -1.370641
				CHANNELS 6 Xposition Yposition Zposition Xrotation Yrotation Zrotation
				JOINT mixamorig:Neck
				{
					OFFSET 0.000001 16.740417 -2.049036
					CHANNELS 6 Xposition Yposition Zposition Xrotation Yrotation Zrotation
					JOINT mixamorig:Head
					{
						OFFSET 0.000000 9.617874 1.685006
						CHANNELS 6 Xposition Yposition Zposition Xrotation Yrotation Zrotation
						JOINT mixamorig:HeadTop_End
						{
							OFFSET 0.000002 22.037354 7.501101
							CHANNELS 6 Xposition Yposition Zposition Xrotation Yrotation Zrotation
							End Site
							{
								OFFSET 0.000168 2310.654297 -282.823242
							}
						}
					}
				}
				JOINT mixamorig:RightShoulder
				{
					OFFSET -4.569970 11.014908 -2.160885
					CHANNELS 6 Xposition Yposition Zposition Xrotation Yrotation Zrotation
					JOINT mixamorig:RightArm
					{
						OFFSET -10.592851 -0.524811 -2.232101
						CHANNELS 6 Xposition Yposition Zposition Xrotation Yrotation Zrotation
						JOINT mixamorig:RightForeArm
						{
							OFFSET -27.841511 0.000031 -0.000004
							CHANNELS 6 Xposition Yposition Zposition Xrotation Yrotation Zrotation
							JOINT mixamorig:RightHand
							{
								OFFSET -28.328831 -0.000015 0.000015
								CHANNELS 6 Xposition Yposition Zposition Xrotation Yrotation Zrotation
								JOINT mixamorig:RightHandThumb1
								{
									OFFSET -2.464806 -1.573990 2.681852
									CHANNELS 6 Xposition Yposition Zposition Xrotation Yrotation Zrotation
									JOINT mixamorig:RightHandThumb2
									{
										OFFSET -3.215179 -1.872803 1.924282
										CHANNELS 6 Xposition Yposition Zposition Xrotation Yrotation Zrotation
										JOINT mixamorig:RightHandThumb3
										{
											OFFSET -2.654831 -1.527969 1.512609
											CHANNELS 6 Xposition Yposition Zposition Xrotation Yrotation Zrotation
											JOINT mixamorig:RightHandThumb4
											{
												OFFSET -2.018814 -1.152008 1.108052
												CHANNELS 6 Xposition Yposition Zposition Xrotation Yrotation Zrotation
												End Site
												{
													OFFSET -188.809540 -114.533607 132.431396
												}
											}
										}
									}
								}
								JOINT mixamorig:RightHandIndex1
								{
									OFFSET -9.108284 -0.517868 2.259835
									CHANNELS 6 Xposition Yposition Zposition Xrotation Yrotation Zrotation
									JOINT mixamorig:RightHandIndex2
									{
										OFFSET -3.699989 0.000000 0.001215
										CHANNELS 6 Xposition Yposition Zposition Xrotation Yrotation Zrotation
										JOINT mixamorig:RightHandIndex3
										{
											OFFSET -2.850006 0.000031 -0.000522
											CHANNELS 6 Xposition Yposition Zposition Xrotation Yrotation Zrotation
											JOINT mixamorig:RightHandIndex4
											{
												OFFSET -2.772186 -0.000015 -0.000020
												CHANNELS 6 Xposition Yposition Zposition Xrotation Yrotation Zrotation
												End Site
												{
													OFFSET -277.218445 0.000000 -0.050231
												}
											}
										}
									}
								}
								JOINT mixamorig:RightHandMiddle1
								{
									OFFSET -9.532516 -0.000031 -0.000023
									CHANNELS 6 Xposition Yposition Zposition Xrotation Yrotation Zrotation
									JOINT mixamorig:RightHandMiddle2
									{
										OFFSET -3.700005 -0.000015 0.003713
										CHANNELS 6 Xposition Yposition Zposition Xrotation Yrotation Zrotation
										JOINT mixamorig:RightHandMiddle3
										{
											OFFSET -2.949974 0.000015 -0.002054
											CHANNELS 6 Xposition Yposition Zposition Xrotation Yrotation Zrotation
											JOINT mixamorig:RightHandMiddle4
											{
												OFFSET -2.946640 0.000000 -0.000156
												CHANNELS 6 Xposition Yposition Zposition Xrotation Yrotation Zrotation
												End Site
												{
													OFFSET -294.664337 0.000000 -0.113670
												}
											}
										}
									}
								}
								JOINT mixamorig:RightHandRing1
								{
									OFFSET -9.103600 -0.043076 -1.865134
									CHANNELS 6 Xposition Yposition Zposition Xrotation Yrotation Zrotation
									JOINT mixamorig:RightHandRing2
									{
										OFFSET -3.379288 0.000000 -0.001055
										CHANNELS 6 Xposition Yposition Zposition Xrotation Yrotation Zrotation
										JOINT mixamorig:RightHandRing3
										{
											OFFSET -2.889687 -0.000015 0.000379
											CHANNELS 6 Xposition Yposition Zposition Xrotation Yrotation Zrotation
											JOINT mixamorig:RightHandRing4
											{
												OFFSET -2.638809 -0.000015 0.000941
												CHANNELS 6 Xposition Yposition Zposition Xrotation Yrotation Zrotation
												End Site
												{
													OFFSET -263.880371 0.000000 0.516020
												}
											}
										}
									}
								}
								JOINT mixamorig:RightHandPinky1
								{
									OFFSET -8.076683 -0.486710 -3.806280
									CHANNELS 6 Xposition Yposition Zposition Xrotation Yrotation Zrotation
									JOINT mixamorig:RightHandPinky2
									{
										OFFSET -3.600014 -0.000015 -0.003747
										CHANNELS 6 Xposition Yposition Zposition Xrotation Yrotation Zrotation
										JOINT mixamorig:RightHandPinky3
										{
											OFFSET -2.099983 0.000000 -0.005739
											CHANNELS 6 Xposition Yposition Zposition Xrotation Yrotation Zrotation
											JOINT mixamorig:RightHandPinky4
											{
												OFFSET -2.115768 -0.000031 -0.003680
												CHANNELS 6 Xposition Yposition Zposition Xrotation Yrotation Zrotation
												End Site
												{
													OFFSET -211.577087 0.000000 -0.350686
												}
											}
										}
									}
								}
							}
						}
					}
				}
				JOINT mixamorig:LeftShoulder
				{
					OFFSET 4.570447 11.014725 -2.160855
					CHANNELS 6 Xposition Yposition Zposition Xrotation Yrotation Zrotation
					JOINT mixamorig:LeftArm
					{
						OFFSET 10.592371 -0.524597 -2.232119
						CHANNELS 6 Xposition Yposition Zposition Xrotation Yrotation Zrotation
						JOINT mixamorig:LeftForeArm
						{
							OFFSET 27.841532 -0.000031 0.000026
							CHANNELS 6 Xposition Yposition Zposition Xrotation Yrotation Zrotation
							JOINT mixamorig:LeftHand
							{
								OFFSET 28.328846 -0.000061 0.000022
								CHANNELS 6 Xposition Yposition Zposition Xrotation Yrotation Zrotation
								JOINT mixamorig:LeftHandThumb1
								{
									OFFSET 2.466141 -1.576172 2.681732
									CHANNELS 6 Xposition Yposition Zposition Xrotation Yrotation Zrotation
									JOINT mixamorig:LeftHandThumb2
									{
										OFFSET 3.217812 -1.872070 1.916482
										CHANNELS 6 Xposition Yposition Zposition Xrotation Yrotation Zrotation
										JOINT mixamorig:LeftHandThumb3
										{
											OFFSET 2.656029 -1.528778 1.514513
											CHANNELS 6 Xposition Yposition Zposition Xrotation Yrotation Zrotation
											JOINT mixamorig:LeftHandThumb4
											{
												OFFSET 2.020889 -1.154053 1.115139
												CHANNELS 6 Xposition Yposition Zposition Xrotation Yrotation Zrotation
												End Site
												{
													OFFSET 190.885437 -115.081749 130.048782
												}
											}
										}
									}
								}
								JOINT mixamorig:LeftHandIndex1
								{
									OFFSET 9.109314 -0.518021 2.259871
									CHANNELS 6 Xposition Yposition Zposition Xrotation Yrotation Zrotation
									JOINT mixamorig:LeftHandIndex2
									{
										OFFSET 3.699989 0.000000 -0.000322
										CHANNELS 6 Xposition Yposition Zposition Xrotation Yrotation Zrotation
										JOINT mixamorig:LeftHandIndex3
										{
											OFFSET 2.850006 0.000000 0.000352
											CHANNELS 6 Xposition Yposition Zposition Xrotation Yrotation Zrotation
											JOINT mixamorig:LeftHandIndex4
											{
												OFFSET 2.774864 -0.000031 -0.000027
												CHANNELS 6 Xposition Yposition Zposition Xrotation Yrotation Zrotation
												End Site
												{
													OFFSET 277.486267 0.000000 -0.009857
												}
											}
										}
									}
								}
								JOINT mixamorig:LeftHandMiddle1
								{
									OFFSET 9.533394 0.000061 0.000044
									CHANNELS 6 Xposition Yposition Zposition Xrotation Yrotation Zrotation
									JOINT mixamorig:LeftHandMiddle2
									{
										OFFSET 3.699989 -0.000015 -0.000231
										CHANNELS 6 Xposition Yposition Zposition Xrotation Yrotation Zrotation
										JOINT mixamorig:LeftHandMiddle3
										{
											OFFSET 2.949997 -0.000015 -0.000059
											CHANNELS 6 Xposition Yposition Zposition Xrotation Yrotation Zrotation
											JOINT mixamorig:LeftHandMiddle4
											{
												OFFSET 2.952896 0.000031 0.000063
												CHANNELS 6 Xposition Yposition Zposition Xrotation Yrotation Zrotation
												End Site
												{
													OFFSET 295.289337 0.000000 0.022810
												}
											}
										}
									}
								}
								JOINT mixamorig:LeftHandRing1
								{
									OFFSET 9.104523 -0.042999 -1.865074
									CHANNELS 6 Xposition Yposition Zposition Xrotation Yrotation Zrotation
									JOINT mixamorig:LeftHandRing2
									{
										OFFSET 3.150009 -0.000031 0.000043
										CHANNELS 6 Xposition Yposition Zposition Xrotation Yrotation Zrotation
										JOINT mixamorig:LeftHandRing3
										{
											OFFSET 2.949982 -0.000015 0.000040
											CHANNELS 6 Xposition Yposition Zposition Xrotation Yrotation Zrotation
											JOINT mixamorig:LeftHandRing4
											{
												OFFSET 2.644348 0.000000 0.000057
												CHANNELS 6 Xposition Yposition Zposition Xrotation Yrotation Zrotation
												End Site
												{
													OFFSET 264.434631 0.000000 0.012105
												}
											}
										}
									}
								}
								JOINT mixamorig:LeftHandPinky1
								{
									OFFSET 8.077789 -0.486847 -3.806259
									CHANNELS 6 Xposition Yposition Zposition Xrotation Yrotation Zrotation
									JOINT mixamorig:LeftHandPinky2
									{
										OFFSET 3.599953 0.000031 0.014727
										CHANNELS 6 Xposition Yposition Zposition Xrotation Yrotation Zrotation
										JOINT mixamorig:LeftHandPinky3
										{
											OFFSET 2.100021 0.000015 0.007705
											CHANNELS 6 Xposition Yposition Zposition Xrotation Yrotation Zrotation
											JOINT mixamorig:LeftHandPinky4
											{
												OFFSET 2.125504 0.000031 0.007517
												CHANNELS 6 Xposition Yposition Zposition Xrotation Yrotation Zrotation
												End Site
												{
													OFFSET 212.550781 0.000000 0.625752
												}
											}
										}
									}
								}
							}
						}
					}
				}
			}
		}
	}
	JOINT mixamorig:RightUpLeg
	{
		OFFSET -8.207787 -6.751648 -1.599560
		CHANNELS 6 Xposition Yposition Zposition Xrotation Yrotation Zrotation
		JOINT mixamorig:RightLeg
		{
			OFFSET -0.000002 -44.370117 0.345942
			CHANNELS 6 Xposition Yposition Zposition Xrotation Yrotation Zrotation
			JOINT mixamorig:RightFoot
			{
				OFFSET 0.000003 -44.423679 -3.043532
				CHANNELS 6 Xposition Yposition Zposition Xrotation Yrotation Zrotation
				JOINT mixamorig:RightToeBase
				{
					OFFSET -0.000002 -8.728671 10.710558
					CHANNELS 6 Xposition Yposition Zposition Xrotation Yrotation Zrotation
					JOINT mixamorig:RightToe_End
					{
						OFFSET -0.000001 -0.000679 9.278119
						CHANNELS 6 Xposition Yposition Zposition Xrotation Yrotation Zrotation
						End Site
						{
							OFFSET 0.000000 -0.067690 927.812134
						}
					}
				}
			}
		}
	}
	JOINT mixamorig:LeftUpLeg
	{
		OFFSET 8.207793 -6.751686 -1.599556
		CHANNELS 6 Xposition Yposition Zposition Xrotation Yrotation Zrotation
		JOINT mixamorig:LeftLeg
		{
			OFFSET -0.000004 -44.370014 0.346954
			CHANNELS 6 Xposition Yposition Zposition Xrotation Yrotation Zrotation
			JOINT mixamorig:LeftFoot
			{
				OFFSET -0.000001 -44.423672 -3.044401
				CHANNELS 6 Xposition Yposition Zposition Xrotation Yrotation Zrotation
				JOINT mixamorig:LeftToeBase
				{
					OFFSET -0.000002 -8.728669 10.710558
					CHANNELS 6 Xposition Yposition Zposition Xrotation Yrotation Zrotation
					JOINT mixamorig:LeftToe_End
					{
						OFFSET -0.000003 -0.000679 9.278133
						CHANNELS 6 Xposition Yposition Zposition Xrotation Yrotation Zrotation
						End Site
						{
							OFFSET 0.000000 -0.068021 927.813477
						}
					}
				}
			}
		}
	}
}
MOTION
Frames: 3
Frame Time: 0.033333
0.000006 104.270477 1.554256 0.000010 0.000003 -0.000113 -0.000005 10.181587 0.131522 0.000001 -0.000003 0.000084 -0.000000 9.893967 -1.470711 0.000001 0.000000 -0.000000 -0.000000 9.220802 -1.370642 0.000000 -0.000000 -0.000000 0.000001 16.740433 -2.049030 0.000000 -0.000000 -0.000000 0.000000 9.617859 1.685014 0.000000 0.000000 0.000000 0.000002 22.037384 7.501101 0.000000 -0.000000 0.000000 -4.569968 11.014880 -2.160881 0.000008 0.000001 -0.000038 -10.592865 -0.524782 -2.231873 75.724238 36.256495 -28.559849 -27.841524 0.000014 0.000555 -52.029803 107.559210 67.354497 -28.328829 -0.000006 0.000033 -0.000323 -0.000043 0.000007 -2.464413 -1.573802 2.682349 -43.996571 -159.110664 -0.980304 -3.215281 -1.872574 1.924646 151.786228 31.698676 7.008224 -2.654953 -1.527858 1.513072 143.482986 27.889913 -33.011274 -2.018834 -1.152014 1.108057 -0.000003 -0.000007 0.000002 -9.108376 -0.517551 2.260175 108.148840 15.362357 -21.152457 -3.700051 0.000341 0.001541 103.090545 10.755612 -13.491745 -2.850073 0.000379 -0.000223 102.683985 7.183118 -8.971775 -2.772158 -0.000017 -0.000021 -0.000000 0.000001 0.000001 -9.532591 0.000276 0.000295 104.575148 14.692145 -19.112534 -3.700083 0.000337 0.003994 101.065107 10.002009 -12.020785 -2.950043 0.000352 -0.001779 100.455649 7.980548 -9.572999 -2.946633 0.000014 -0.000152 0.000000 -0.000000 0.000000 -9.103705 -0.042752 -1.864824 101.789981 16.783607 -20.519087 -3.379337 0.000315 -0.000755 102.331151 10.681284 -13.269528 -2.889767 0.000356 0.000682 105.374280 6.580476 -8.686793 -2.638817 -0.000002 0.000940 0.000000 0.000001 0.000000 -8.076761 -0.486395 -3.806049 80.599518 18.775032 -15.831207 -3.600039 0.000265 -0.003529 84.803137 10.902931 -9.626282 -2.100006 0.000326 -0.005489 89.622757 5.482820 -5.229464 -2.115784 -0.000056 -0.003678 0.000001 0.000000 -0.000003 4.570446 11.014691 -2.160851 -0.000018 0.000010 -0.000021 10.592434 -0.524459 -2.232385 74.753272 -23.976030 18.427225 27.841837 0.000076 -0.000191 -70.187673 -109.594306 -89.768261 28.328854 -0.000030 0.000019 0.000021 -0.000089 0.000000 2.466055 -1.576157 2.681903 -32.255510 159.723263 -25.647167 3.217833 -1.871782 1.916377 155.605943 -28.605131 14.453257 2.656082 -1.528631 1.514440 139.596444 -28.179441 39.229670 2.020895 -1.154069 1.115147 0.000001 0.000002 0.000004 9.109380 -0.517830 2.259730 91.230270 -13.433567 13.710101 3.700037 0.000164 -0.000471 85.635136 -11.729883 10.889520 2.850060 0.000196 0.000212 81.977126 -11.579115 10.068771 2.774894 -0.000030 -0.000028 -0.000000 0.000001 0.000000 9.533467 0.000204 -0.000098 78.488347 -15.100467 12.351560 3.700042 0.000136 -0.000376 77.969833 -16.030017 13.000774 2.950054 0.000109 -0.000184 73.864015 -18.319368 13.824075 2.952873 -0.000016 0.000065 -0.000001 -0.000001 0.000000 9.104583 -0.042866 -1.865222 75.166778 -16.373942 12.638593 3.150048 0.000145 -0.000072 75.903865 -18.764278 14.687750 2.950017 0.000094 -0.000057 71.503358 -19.490261 14.098605 2.644321 0.000027 0.000057 -0.000000 -0.000001 0.000002 8.077849 -0.486787 -3.806384 59.813107 -21.929576 13.094279 3.600009 0.000103 0.014595 55.482641 -18.219326 9.941464 2.100041 0.000063 0.007587 53.913921 -15.931876 8.413778 2.125501 -0.000016 0.007515 0.000002 0.000001 0.000004 -8.207786 -6.751667 -1.599560 -0.077001 -0.000003 0.000080 -0.000002 -44.370110 0.345938 0.153719 -0.000000 -0.000000 0.000000 -44.423679 -3.043532 -0.076700 0.000000 -0.000002 -0.000006 -8.728667 10.710559 -0.000009 -0.000000 -0.000000 -0.000001 -0.000679 9.278123 0.000000 -0.000000 -0.000000 8.207792 -6.751710 -1.599556 -0.074518 -0.000003 0.000081 -0.000002 -44.370014 0.346960 0.148822 0.000002 0.000000 -0.000001 -44.423664 -3.044403 -0.074314 0.000000 -0.000002 -0.000004 -8.728671 10.710558 0.000007 -0.000000 -0.000000 0.000000 -0.000680 9.278137 -0.000000 0.000000 -0.000001 
0.000006 104.270477 1.554256 0.000010 0.000003 -0.000113 -0.000005 10.181587 0.131522 0.000001 -0.000003 0.000084 -0.000000 9.893967 -1.470711 0.000001 0.000000 -0.000000 -0.000000 9.220802 -1.370642 0.000000 -0.000000 -0.000000 0.000001 16.740433 -2.049030 0.000000 -0.000000 -0.000000 0.000000 9.617859 1.685014 0.000000 0.000000 0.000000 0.000002 22.037384 7.501101 0.000000 -0.000000 0.000000 -4.569968 11.014880 -2.160881 0.000008 0.000001 -0.000038 -10.592867 -0.524781 -2.231870 77.514321 33.465195 -27.137351 -27.841516 0.000011 0.000546 -49.007212 105.865733 62.213311 -28.328821 -0.000006 0.000027 -0.000322 -0.000044 0.000007 -2.464402 -1.573791 2.682316 -47.635611 -162.069993 -9.406807 -3.215294 -1.872566 1.924649 152.235628 31.615016 5.963052 -2.654948 -1.527881 1.513067 144.251806 27.661788 -34.446242 -2.018819 -1.152003 1.108065 -0.000001 -0.000003 0.000002 -9.108378 -0.517550 2.260146 108.570713 14.617964 -20.293891 -3.700046 0.000316 0.001558 105.767317 11.936869 -15.701174 -2.850082 0.000370 -0.000202 105.349049 9.366419 -12.263050 -2.772157 0.000001 -0.000019 0.000000 -0.000002 0.000001 -9.532577 0.000269 0.000277 102.685986 14.919761 -18.768110 -3.700072 0.000306 0.004007 103.388048 11.721139 -14.688213 -2.950065 0.000329 -0.001782 103.251314 10.698503 -13.478463 -2.946625 0.000002 -0.000149 0.000001 -0.000001 -0.000000 -9.103701 -0.042758 -1.864848 98.641319 17.925162 -20.743558 -3.379350 0.000318 -0.000760 102.898466 12.137890 -15.221532 -2.889763 0.000347 0.000679 106.065741 9.058421 -12.078446 -2.638808 -0.000013 0.000943 0.000000 0.000001 -0.000000 -8.076772 -0.486415 -3.806042 80.697811 23.147180 -19.602266 -3.600053 0.000238 -0.003532 82.883041 13.466432 -11.567429 -2.100020 0.000310 -0.005505 85.976775 7.246858 -6.546996 -2.115778 -0.000055 -0.003679 0.000003 0.000001 -0.000005 4.570446 11.014691 -2.160851 -0.000018 0.000010 -0.000021 10.592443 -0.524459 -2.232400 75.137511 -27.680079 21.462126 27.841829 0.000036 -0.000195 -68.972446 -105.944690 -84.646111 28.328838 -0.000028 0.000019 0.000021 -0.000089 0.000000 2.466002 -1.576167 2.681915 -37.628912 165.056098 -16.399284 3.217832 -1.871754 1.916381 158.802021 -27.747089 18.531201 2.656095 -1.528655 1.514472 136.671020 -28.643378 50.527735 2.020895 -1.154085 1.115153 -0.000000 0.000003 0.000004 9.109382 -0.517838 2.259729 90.513011 -15.947235 16.076329 3.700032 0.000180 -0.000470 89.337809 -10.894962 10.786827 2.850057 0.000203 0.000194 87.924889 -9.528248 9.189533 2.774880 -0.000044 -0.000026 0.000002 0.000002 -0.000000 9.533459 0.000176 -0.000079 77.374862 -17.621840 14.144032 3.700041 0.000160 -0.000377 77.156385 -12.214919 9.754703 2.950052 0.000147 -0.000201 78.079909 -12.373955 10.050272 2.952872 -0.000016 0.000062 -0.000001 -0.000001 0.000000 9.104583 -0.042879 -1.865222 73.801048 -17.680081 13.322372 3.150041 0.000167 -0.000106 77.721672 -12.410412 10.015142 2.950034 0.000156 -0.000078 79.139824 -11.253543 9.310723 2.644303 0.000046 0.000055 -0.000000 0.000003 -0.000000 8.077821 -0.486787 -3.806382 56.687691 -19.045588 10.687046 3.599992 0.000115 0.014586 55.199871 -16.356428 8.885095 2.100024 0.000121 0.007568 59.911865 -12.016293 7.229337 2.125511 -0.000016 0.007518 -0.000001 -0.000000 0.000000 -8.207786 -6.751667 -1.599560 -0.077001 -0.000003 0.000080 -0.000002 -44.370110 0.345938 0.153719 -0.000000 -0.000000 0.000000 -44.423679 -3.043532 -0.076700 0.000000 -0.000002 -0.000006 -8.728667 10.710559 -0.000009 -0.000000 -0.000000 -0.000001 -0.000679 9.278123 0.000000 -0.000000 -0.000000 8.207792 -6.751710 -1.599556 -0.074518 -0.000003 0.000081 -0.000002 -44.370014 0.346960 0.148822 0.000002 0.000000 -0.000001 -44.423664 -3.044403 -0.074314 0.000000 -0.000002 -0.000004 -8.728671 10.710558 0.000007 -0.000000 -0.000000 0.000000 -0.000680 9.278137 -0.000000 0.000000 -0.000001 
0.000006 104.270477 1.554256 0.000010 0.000003 -0.000113 -0.000005 10.181587 0.131522 0.000001 -0.000003 0.000084 -0.000000 9.893967 -1.470711 0.000001 0.000000 -0.000000 -0.000000 9.220802 -1.370642 0.000000 -0.000000 -0.000000 0.000001 16.740433 -2.049030 0.000000 -0.000000 -0.000000 0.000000 9.617859 1.685014 0.000000 0.000000 0.000000 0.000002 22.037384 7.501101 0.000000 -0.000000 0.000000 -4.569968 11.014880 -2.160881 0.000008 0.000001 -0.000038 -10.592852 -0.524814 -2.231831 77.486017 42.390329 -34.566706 -27.841528 0.000020 0.000562 -48.245755 103.626988 59.308179 -28.328833 -0.000005 0.000025 -0.000321 -0.000047 0.000012 -2.464412 -1.573801 2.682316 -46.858926 -159.958755 -7.681850 -3.215291 -1.872605 1.924650 152.286553 30.242339 -3.560443 -2.654980 -1.527855 1.513064 143.351942 27.946627 -32.458155 -2.018829 -1.152009 1.108061 -0.000002 0.000003 -0.000000 -9.108364 -0.517546 2.260173 110.142469 13.615434 -19.466078 -3.700044 0.000333 0.001558 107.378012 10.341141 -14.008861 -2.850059 0.000374 -0.000218 106.039097 7.638608 -10.131352 -2.772166 0.000001 -0.000022 -0.000001 0.000003 -0.000002 -9.532583 0.000281 0.000271 105.316831 12.862545 -16.988919 -3.700064 0.000344 0.004023 105.455935 10.375571 -13.484872 -2.950062 0.000349 -0.001772 104.203879 9.841013 -12.613161 -2.946632 -0.000002 -0.000157 0.000001 -0.000002 -0.000000 -9.103688 -0.042748 -1.864826 101.747948 15.724912 -19.216189 -3.379353 0.000299 -0.000752 105.946138 11.560380 -15.310528 -2.889782 0.000335 0.000712 108.696389 9.150749 -12.797257 -2.638808 -0.000016 0.000943 -0.000000 0.000001 -0.000001 -8.076763 -0.486386 -3.806050 85.577954 19.580288 -18.006616 -3.600065 0.000258 -0.003516 89.459345 12.034574 -11.554922 -2.100026 0.000306 -0.005480 93.575948 7.069446 -7.285691 -2.115773 -0.000052 -0.003676 0.000002 -0.000000 -0.000001 4.570446 11.014691 -2.160851 -0.000018 0.000010 -0.000021 10.592492 -0.524466 -2.232405 75.661031 -41.377197 32.687755 27.841835 0.000040 -0.000187 -68.090245 -103.947857 -81.653136 28.328840 -0.000027 0.000020 0.000019 -0.000089 -0.000001 2.466069 -1.576167 2.681904 -27.580060 160.391474 -36.147031 3.217865 -1.871838 1.916386 158.330028 -25.470831 30.009194 2.656101 -1.528665 1.514469 135.553109 -28.981299 50.944790 2.020886 -1.154051 1.115145 0.000000 0.000004 0.000008 9.109381 -0.517839 2.259726 95.841290 -16.723816 18.478689 3.700054 0.000197 -0.000475 93.869359 -10.250645 10.980664 2.850059 0.000232 0.000191 92.057406 -8.383398 8.687533 2.774890 -0.000047 -0.000030 0.000002 -0.000001 -0.000001 9.533475 0.000206 -0.000088 84.822016 -18.128437 16.574453 3.700036 0.000172 -0.000388 85.248267 -10.989062 10.115818 2.950043 0.000166 -0.000209 84.868659 -11.168642 10.218599 2.952857 -0.000015 0.000064 -0.000001 -0.000000 -0.000002 9.104584 -0.042879 -1.865235 77.030812 -18.358439 14.658482 3.150042 0.000174 -0.000106 80.964953 -12.772604 10.915908 2.950034 0.000174 -0.000079 82.859702 -11.103884 9.808001 2.644329 0.000031 0.000057 0.000001 0.000000 -0.000001 8.077820 -0.486781 -3.806390 60.271590 -19.532977 11.782118 3.600000 0.000110 0.014596 59.873288 -17.710776 10.576031 2.100053 0.000131 0.007562 64.334289 -13.475249 8.815466 2.125518 -0.000014 0.007518 -0.000003 0.000002 0.000000 -8.207786 -6.751667 -1.599560 -0.077001 -0.000003 0.000080 -0.000002 -44.370110 0.345938 0.153719 -0.000000 -0.000000 0.000000 -44.423679 -3.043532 -0.076700 0.000000 -0.000002 -0.000006 -8.728667 10.710559 -0.000009 -0.000000 -0.000000 -0.000001 -0.000679 9.278123 0.000000 -0.000000 -0.000000 8.207792 -6.751710 -1.599556 -0.074518 -0.000003 0.000081 -0.000002 -44.370014 0.346960 0.148822 0.000002 0.000000 -0.000001 -44.423664 -3.044403 -0.074314 0.000000 -0.000002 -0.000004 -8.728671 10.710558 0.000007 -0.000000 -0.000000 0.000000 -0.000680 9.278137 -0.000000 0.000000 -0.000001 
